<svg width="59" height="58" viewBox="0 0 59 58" fill="none" xmlns="http://www.w3.org/2000/svg">
<path d="M29.5 58C45.5163 58 58.5 45.0163 58.5 29C58.5 12.9837 45.5163 0 29.5 0C13.4837 0 0.5 12.9837 0.5 29C0.5 45.0163 13.4837 58 29.5 58Z" fill="#5464F2"/>
<path d="M34.6376 35.3332L29 40.9708L19.7667 31.7375C18.5423 30.5131 16.5964 28.5882 16.5964 25.8628C16.5964 24.1312 17.2843 22.4706 18.5087 21.2462C19.7331 20.0218 21.3938 19.3339 23.1254 19.3339C24.857 19.3339 26.5176 20.0218 27.742 21.2462L29 22.5042L30.2581 21.2462C30.8642 20.6397 31.5839 20.1586 32.3761 19.8304C33.1682 19.5022 34.0173 19.3333 34.8747 19.3333C35.7322 19.3333 36.5812 19.5022 37.3734 19.8304C38.1655 20.1586 38.8852 20.6397 39.4914 21.2462C40.0978 21.8523 40.5789 22.572 40.9071 23.3642C41.1676 23.9928 41.3277 24.6572 41.3828 25.3333" stroke="white" stroke-width="1.8" stroke-linecap="round" stroke-linejoin="round"/>
<path d="M28.3337 29.3333H31.5389C31.6199 29.3333 31.6965 29.2965 31.7471 29.2333L34.0734 26.3254C34.195 26.1735 34.4331 26.1987 34.5201 26.3728L37.4807 32.2939C37.5677 32.468 37.8059 32.4932 37.9274 32.3412L40.2537 29.4334C40.3043 29.3702 40.3809 29.3333 40.4619 29.3333H43.6671" stroke="white" stroke-width="1.8" stroke-linecap="round"/>
</svg>
