<svg width="132" height="101" viewBox="0 0 132 101" fill="none" xmlns="http://www.w3.org/2000/svg">
<path d="M0 101V1H5.4819C14.9849 1 23.5929 6.60711 27.434 15.2992L31.2255 23.8791C35.9121 34.4847 44.7026 43.0644 56.069 45.355C59.4228 46.0309 62.7438 46.5 65.5013 46.5C68.2588 46.5 71.5798 46.0309 74.9336 45.355C86.3 43.0644 95.0904 34.4847 99.7771 23.8791L103.569 15.2992C107.41 6.60712 116.018 1 125.521 1H132V101H0Z" fill="#131416"/>
<path d="M0 1H5.4819C14.9849 1 23.5929 6.60711 27.434 15.2992L31.2255 23.8791C35.9121 34.4847 44.7026 43.0644 56.069 45.355C59.4228 46.0309 62.7438 46.5 65.5013 46.5C68.2588 46.5 71.5798 46.0309 74.9336 45.355C86.3 43.0644 95.0904 34.4847 99.7771 23.8791L103.569 15.2992C107.41 6.60712 116.018 1 125.521 1L132 1" stroke="#1E2127" stroke-width="1.5"/>
</svg>
