<svg width="24" height="24" viewBox="0 0 24 24" fill="none" xmlns="http://www.w3.org/2000/svg">
<path d="M19.2207 17.3837C18.9416 18.0285 18.6112 18.6221 18.2284 19.1678C17.7066 19.9117 17.2794 20.4267 16.9501 20.7126C16.4397 21.182 15.8929 21.4224 15.3073 21.4361C14.8869 21.4361 14.3799 21.3164 13.7898 21.0738C13.1977 20.8323 12.6536 20.7126 12.1561 20.7126C11.6343 20.7126 11.0747 20.8323 10.4761 21.0738C9.8766 21.3164 9.39366 21.4429 9.02442 21.4554C8.46287 21.4794 7.90315 21.2321 7.34445 20.7126C6.98786 20.4016 6.54183 19.8684 6.00751 19.1131C5.43423 18.3065 4.96291 17.3711 4.59368 16.3048C4.19823 15.153 4 14.0376 4 12.9578C4 11.7209 4.26727 10.6541 4.80262 9.76012C5.22335 9.04204 5.78308 8.47559 6.48362 8.05976C7.18415 7.64392 7.94109 7.43202 8.75624 7.41846C9.20226 7.41846 9.78717 7.55643 10.514 7.82757C11.2388 8.09963 11.7042 8.2376 11.9083 8.2376C12.0608 8.2376 12.5778 8.07628 13.4543 7.75466C14.2831 7.4564 14.9826 7.3329 15.5556 7.38155C17.1085 7.50687 18.2751 8.119 19.0509 9.22181C17.6622 10.0633 16.9752 11.2419 16.9889 12.7538C17.0014 13.9315 17.4286 14.9115 18.2683 15.6896C18.6488 16.0507 19.0737 16.3299 19.5465 16.5281C19.444 16.8254 19.3358 17.1103 19.2207 17.3837ZM15.6593 3.36948C15.6593 4.29253 15.3221 5.15438 14.6499 5.9521C13.8388 6.90043 12.8576 7.44842 11.7937 7.36195C11.7801 7.25121 11.7722 7.13467 11.7722 7.0122C11.7722 6.12607 12.158 5.17774 12.843 4.40235C13.185 4.00976 13.62 3.68332 14.1475 3.42292C14.6739 3.1664 15.1717 3.02454 15.64 3.00024C15.6536 3.12364 15.6593 3.24705 15.6593 3.36947V3.36948Z" fill="white"/>
</svg>
