<svg width="24" height="24" viewBox="0 0 24 24" fill="none" xmlns="http://www.w3.org/2000/svg">
<g id="Group">
<g id="Vector">
<mask id="path-1-inside-1_6510_37923" fill="white">
<path fill-rule="evenodd" clip-rule="evenodd" d="M21.5229 0H2.47712C1.11003 0 0 1.11003 0 2.47712V21.5229C0 22.89 1.11003 24 2.47712 24H21.5229C22.89 24 24 22.89 24 21.5229V2.47712C24 1.11003 22.89 0 21.5229 0Z"/>
</mask>
<path fill-rule="evenodd" clip-rule="evenodd" d="M21.5229 0H2.47712C1.11003 0 0 1.11003 0 2.47712V21.5229C0 22.89 1.11003 24 2.47712 24H21.5229C22.89 24 24 22.89 24 21.5229V2.47712C24 1.11003 22.89 0 21.5229 0Z" fill="#353942"/>
<path d="M21.5229 -1H2.47712V1H21.5229V-1ZM2.47712 -1C0.557744 -1 -1 0.557744 -1 2.47712H1C1 1.66231 1.66231 1 2.47712 1V-1ZM-1 2.47712V21.5229H1V2.47712H-1ZM-1 21.5229C-1 23.4423 0.557744 25 2.47712 25V23C1.66231 23 1 22.3377 1 21.5229H-1ZM2.47712 25H21.5229V23H2.47712V25ZM21.5229 25C23.4423 25 25 23.4423 25 21.5229H23C23 22.3377 22.3377 23 21.5229 23V25ZM25 21.5229V2.47712H23V21.5229H25ZM25 2.47712C25 0.557744 23.4423 -1 21.5229 -1V1C22.3377 1 23 1.66231 23 2.47712H25Z" fill="#353942" mask="url(#path-1-inside-1_6510_37923)"/>
</g>
<path id="Vector_2" d="M6 11.3901L10.305 15.6951L17.3333 8.66675" stroke="#1E2127" stroke-width="2" stroke-linecap="round" stroke-linejoin="round"/>
</g>
</svg>
