<svg width="20" height="20" viewBox="0 0 20 20" fill="none" xmlns="http://www.w3.org/2000/svg">
<mask id="path-1-inside-1_6510_37931" fill="white">
<path fill-rule="evenodd" clip-rule="evenodd" d="M17.9357 0H2.06426C0.925024 0 0 0.925024 0 2.06426V17.9357C0 19.075 0.925024 20 2.06426 20H17.9357C19.075 20 20 19.075 20 17.9357V2.06426C20 0.925024 19.075 0 17.9357 0Z"/>
</mask>
<path d="M17.9357 -1H2.06426V1H17.9357V-1ZM2.06426 -1C0.372739 -1 -1 0.372739 -1 2.06426H1C1 1.47731 1.47731 1 2.06426 1V-1ZM-1 2.06426V17.9357H1V2.06426H-1ZM-1 17.9357C-1 19.6273 0.372738 21 2.06426 21V19C1.47731 19 1 18.5227 1 17.9357H-1ZM2.06426 21H17.9357V19H2.06426V21ZM17.9357 21C19.6273 21 21 19.6273 21 17.9357H19C19 18.5227 18.5227 19 17.9357 19V21ZM21 17.9357V2.06426H19V17.9357H21ZM21 2.06426C21 0.372738 19.6273 -1 17.9357 -1V1C18.5227 1 19 1.47731 19 2.06426H21Z" fill="#3F444F" mask="url(#path-1-inside-1_6510_37931)"/>
<path d="M5 9.48941L8.5875 13.0769L14.4444 7.21997" stroke="#787C83" stroke-width="1.66667" stroke-linecap="round" stroke-linejoin="round"/>
</svg>
