<svg width="54" height="54" viewBox="0 0 54 54" fill="none" xmlns="http://www.w3.org/2000/svg">
<mask id="mask0_6959_22861" style="mask-type:alpha" maskUnits="userSpaceOnUse" x="0" y="0" width="54" height="54">
<circle cx="27" cy="27" r="27" fill="#D9D9D9"/>
</mask>
<g mask="url(#mask0_6959_22861)">
<circle cx="27" cy="27" r="27" fill="#2E323A"/>
<path d="M26.9998 29.5C32.5226 29.5 36.9998 25.0228 36.9998 19.5C36.9998 13.9772 32.5226 9.5 26.9998 9.5C21.4769 9.5 16.9998 13.9772 16.9998 19.5C16.9998 25.0228 21.4769 29.5 26.9998 29.5Z" fill="#3F444F"/>
<path d="M8.4375 48.6643C8.4375 40.4274 15.1149 33.75 23.3518 33.75H30.6482C38.8851 33.75 45.5625 40.4274 45.5625 48.6643C45.5625 49.4362 45.0848 50.1228 44.353 50.3685C41.2709 51.4034 32.946 54 27 54C21.054 54 12.7291 51.4034 9.64697 50.3685C8.91525 50.1228 8.4375 49.4362 8.4375 48.6643Z" fill="#3F444F"/>
</g>
</svg>
